<?xml version="1.0" ?><!DOCTYPE svg  PUBLIC '-//W3C//DTD SVG 1.1//EN'  'http://www.w3.org/Graphics/SVG/1.1/DTD/svg11.dtd'><svg enable-background="new 0 0 512 512" height="512px" id="icon" version="1.1" viewBox="0 0 512 512" width="512px" xml:space="preserve" xmlns="http://www.w3.org/2000/svg" xmlns:xlink="http://www.w3.org/1999/xlink"><g/><g><path d="M190.25,384.328c-0.517,0.518-0.981,1.046-1.439,1.594l-84.061-84.059c0.562-0.443,1.089-0.912,1.608-1.429   c8.067-8.064,8.052-21.149-0.018-29.216c-8.049-8.052-21.134-8.069-29.201-0.002c-4.838,4.839-6.748,11.479-5.776,17.788   c-0.247,2.546,0.561,5.2,2.515,7.155l0.033,0.031c0.876,1.515,1.938,2.942,3.228,4.23c1.302,1.303,2.727,2.365,4.246,3.245   l105.618,105.621c0.88,1.517,1.941,2.942,3.246,4.245c8.069,8.066,21.136,8.064,29.203-0.003c8.067-8.066,8.067-21.136,0-29.2   C211.385,376.264,198.318,376.264,190.25,384.328z" fill="#1D1D1B"/><path d="M18.001,423.085c-14.811,14.813-14.809,38.861,0.021,53.689c14.824,14.827,38.872,14.83,53.687,0.018   l87.791-87.793l-53.707-53.705L18.001,423.085z M18.278,450.072c-0.515,0.518-0.97,1.062-1.443,1.594   c-0.604-8.52,2.323-17.242,8.825-23.745l70.552-70.551l7.385,7.384L18.278,450.072z" fill="#1D1D1B"/><path d="M434.861,300.422c1.289-1.288,2.35-2.716,3.226-4.23l0.035-0.031c1.955-1.955,2.76-4.609,2.514-7.155   c0.971-6.309-0.938-12.949-5.774-17.788c-8.069-8.067-21.152-8.05-29.204,0.002c-8.068,8.066-8.081,21.151-0.017,29.216   c0.517,0.517,1.049,0.985,1.61,1.429l-84.061,84.059c-0.458-0.548-0.924-1.076-1.44-1.594c-8.067-8.064-21.134-8.064-29.203,0.002   c-8.067,8.064-8.067,21.134-0.002,29.2c8.071,8.067,21.138,8.069,29.205,0.003c1.304-1.303,2.365-2.729,3.245-4.245l105.62-105.621   C432.131,302.787,433.56,301.725,434.861,300.422z" fill="#1D1D1B"/><path d="M148.868,205.929c116.402,108.578,181.949,166.299,181.949,166.299l57.724-57.722L191.914,117.882   c-72.401-17.603-176.202-93.78-176.202-93.78S32.47,97.349,148.868,205.929z M353.351,286.197l-19.44,12.952l-3.245-3.246   l16.197-16.197L353.351,286.197z M343.176,276.024l-19.438,12.95l-3.243-3.243l16.195-16.195L343.176,276.024z M333.093,265.942   l-19.442,12.946l-3.242-3.243l16.196-16.194L333.093,265.942z M322.921,255.77l-19.441,12.947l-3.245-3.245l16.195-16.196   L322.921,255.77z M312.776,245.623l-19.44,12.95l-3.23-3.229l16.195-16.194L312.776,245.623z M302.602,235.448l-19.438,12.949   l-3.246-3.246l16.193-16.193L302.602,235.448z M292.531,225.38l-19.438,12.949l-3.244-3.243l16.193-16.195L292.531,225.38z    M282.359,215.208l-19.438,12.949l-3.246-3.248l16.193-16.193L282.359,215.208z M272.142,204.985l-19.443,12.952l-3.244-3.246   l16.195-16.195L272.142,204.985z M261.964,194.813l-19.435,12.951l-3.248-3.245l16.197-16.195L261.964,194.813z M251.898,184.747   l-19.438,12.949l-3.246-3.245l16.192-16.195L251.898,184.747z M241.708,174.557l-19.44,12.951l-3.226-3.232l16.193-16.192   L241.708,174.557z M231.58,164.428l-19.442,12.949l-3.239-3.243l16.193-16.195L231.58,164.428z M221.407,154.256l-19.44,12.949   l-3.246-3.245l16.194-16.195L221.407,154.256z M211.325,144.172l-19.441,12.95l-3.246-3.248l16.195-16.192L211.325,144.172z    M194.661,127.509l6.488,6.489l-19.438,12.949l-3.246-3.243L194.661,127.509z M56.56,62.463   c14.541,28.794,49.779,84.349,129.609,155.624c66.7,59.577,116.99,103.499,148.271,130.563l-5.625,5.901   c0,0-59.813-50.566-166.287-145.665C56.03,113.786,38.061,49.937,38.061,49.937S45.068,54.911,56.56,62.463z" fill="#1D1D1B"/><path d="M493.998,423.085l-87.79-87.791l-53.709,53.705l87.792,87.793c14.815,14.813,38.859,14.81,53.687-0.018   C508.806,461.946,508.811,437.897,493.998,423.085z M493.721,450.072l-85.318-85.318l7.385-7.384l70.553,70.551   c6.505,6.503,9.43,15.226,8.826,23.745C494.691,451.134,494.237,450.59,493.721,450.072z" fill="#1D1D1B"/><path d="M183.185,354.552l-5.624-5.901c15.162-13.116,34.805-30.209,58.605-51.112l-43.611-39.456l-3.474-2.313   l0.434-0.436l-3.609-3.27l-62.445,62.443l57.722,57.722c0,0,24.077-21.202,68.941-62.062l-7.564-6.842   C203.874,337.061,183.185,354.552,183.185,354.552z M185.397,259.451l16.195,16.194l-3.243,3.243l-19.443-12.946L185.397,259.451z    M175.312,269.536l16.194,16.195l-3.243,3.243l-19.438-12.95L175.312,269.536z M165.142,279.706l16.193,16.197l-3.246,3.246   l-19.438-12.952L165.142,279.706z" fill="#1D1D1B"/><path d="M266.594,178.256l16.193,16.195l-0.645,0.643l32.525,32.958c3.67-3.274,7.39-6.589,11.165-9.965   c79.824-71.275,115.066-126.83,129.609-155.624c11.488-7.552,18.495-12.526,18.495-12.526s-17.967,63.849-124.467,158.95   c-9.938,8.88-19.471,17.368-28.586,25.465l5.585,5.661c11.59-10.737,23.816-22.1,36.661-34.083   c116.4-108.58,133.158-181.828,133.158-181.828s-103.803,76.177-176.204,93.78l-57.447,57.449l3.417,3.461L266.594,178.256z    M317.339,127.509l16.196,16.195l-3.245,3.243l-19.44-12.949L317.339,127.509z M307.168,137.682l16.194,16.192l-3.247,3.248   l-19.438-12.95L307.168,137.682z M297.082,147.765l16.198,16.195l-3.246,3.245l-19.44-12.949L297.082,147.765z M286.908,157.939   l16.195,16.195l-3.242,3.243l-19.439-12.949L286.908,157.939z M276.764,168.083l16.195,16.192l-3.229,3.232l-19.438-12.951   L276.764,168.083z" fill="#1D1D1B"/></g></svg>